<?xml version="1.0" encoding="UTF-8"?>
<svg id="Layer_2" data-name="Layer 2" xmlns="http://www.w3.org/2000/svg" viewBox="0 0 99.73 117.87">
  <defs>
    <style>
      .cls-1 {
        fill: #ffc845;
      }

      .cls-1, .cls-2, .cls-3 {
        stroke-miterlimit: 10;
        stroke-width: 2px;
      }

      .cls-1, .cls-3 {
        stroke: #ffc845;
      }

      .cls-4 {
        letter-spacing: .06em;
      }

      .cls-5 {
        fill: #303030;
        font-family: RomanSerif, RomanSerif;
        font-size: 21px;
      }

      .cls-6 {
        letter-spacing: -.03em;
      }

      .cls-2 {
        stroke: #77c8a9;
      }

      .cls-2, .cls-3 {
        fill: none;
      }

      .cls-7 {
        fill: #77c8a9;
      }

      .cls-8 {
        letter-spacing: .02em;
      }
    </style>
  </defs>
  <g id="Layer_1-2" data-name="Layer 1">
    <g>
      <g>
        <path class="cls-7" d="M43.12,5.8c7.93,7.53,6.67,21.72,6.67,21.72,0,0-14.1,1.97-22.03-5.57C19.83,14.42,21.09,.23,21.09,.23c0,0,14.1-1.97,22.03,5.57Z"/>
        <path class="cls-7" d="M56.61,5.8c-7.93,7.53-6.67,21.72-6.67,21.72,0,0,14.1,1.97,22.03-5.57S78.64,.23,78.64,.23c0,0-14.1-1.97-22.03,5.57Z"/>
      </g>
      <text class="cls-5" transform="translate(12.37 91.31)"><tspan x="0" y="0">F</tspan><tspan class="cls-6" x="10.58" y="0">O</tspan><tspan class="cls-4" x="25.12" y="0">R</tspan><tspan class="cls-8" x="39.27" y="0">E</tspan><tspan x="51.47" y="0">ST</tspan></text>
      <path class="cls-2" d="M34.75,60.61s12.18-10.45,27.94-12.08c-4.72-3.4-16.23-10.53-29.69-10.53-17.67,0-31.99,12.3-31.99,12.3v10.31s7.55,6.49,16.87,6.49,16.87-6.49,16.87-6.49Z"/>
      <path class="cls-1" d="M81.85,56.79c3.15,0,6.08-.74,8.6-1.72-5.85-3.26-14.31-6.75-23.72-6.75-1.37,0-2.72,.08-4.05,.22,1.48,1.06,2.3,1.76,2.3,1.76,0,0,7.55,6.49,16.87,6.49Z"/>
      <path class="cls-3" d="M81.85,56.79c-9.32,0-16.87-6.49-16.87-6.49,0,0-.82-.7-2.3-1.76-15.75,1.63-27.94,12.08-27.94,12.08,0,0-7.55,6.49-16.87,6.49S1,60.61,1,60.61v7.39c0,26.99,21.88,48.86,48.86,48.86s48.86-21.88,48.86-48.86v-7.39s-3.13-2.69-8.27-5.55c-2.52,.98-5.45,1.72-8.6,1.72Z"/>
    </g>
  </g>
</svg>