<?xml version="1.0" encoding="UTF-8"?>
<svg xmlns="http://www.w3.org/2000/svg" viewBox="0 0 471.67 471.23">
  <defs>
    <style>
      .cls-1 {
        fill: #ffc44d;
      }

      .cls-2 {
        fill: #303030;
      }

      .cls-3 {
        fill: #5ce5b4;
      }

      .cls-4 {
        fill: none;
      }

      .cls-5 {
        fill: #f2f2f2;
      }
    </style>
  </defs>
  <g id="Layer_1" data-name="Layer 1">
    <g>
      <circle class="cls-4" cx="235.61" cy="235.61" r="229.58"/>
      <path class="cls-4" d="M235.61,471.23C105.69,471.23,0,365.53,0,235.61S105.69,0,235.61,0s235.61,105.69,235.61,235.61-105.69,235.61-235.61,235.61Zm0-459.16C112.35,12.07,12.07,112.35,12.07,235.61s100.28,223.54,223.54,223.54,223.54-100.28,223.54-223.54S358.87,12.07,235.61,12.07Z"/>
    </g>
  </g>
  <g id="Layer_5" data-name="Layer 5">
    <g>
      <rect class="cls-1" x="250.79" y="132.4" width="89.56" height="89.56"/>
      <path class="cls-2" d="M340.36,228h-89.57c-3.34,0-6.03-2.7-6.03-6.03v-89.57c0-3.34,2.7-6.03,6.03-6.03h89.57c3.34,0,6.03,2.7,6.03,6.03v89.57c0,3.34-2.7,6.03-6.03,6.03Zm-83.53-12.07h77.5v-77.5h-77.5v77.5Z"/>
    </g>
  </g>
  <g id="Layer_2" data-name="Layer 2">
    <g>
      <rect class="cls-5" x="123.14" y="258.06" width="89.56" height="89.56"/>
      <path class="cls-2" d="M212.7,353.65H123.13c-3.34,0-6.03-2.7-6.03-6.03v-89.56c0-3.34,2.7-6.03,6.03-6.03h89.57c3.34,0,6.03,2.7,6.03,6.03v89.56c0,3.34-2.7,6.03-6.03,6.03Zm-83.53-12.07h77.5v-77.49h-77.5v77.49Z"/>
    </g>
  </g>
  <g id="Layer_3" data-name="Layer 3">
    <path class="cls-2" d="M352.7,355.58l-20.01-18.08c8.49-9.09,13.7-21.27,13.7-34.66,0-28.02-22.79-50.82-50.82-50.82s-50.82,22.8-50.82,50.82,22.79,50.81,50.82,50.81c10.26,0,19.8-3.06,27.8-8.31l21.24,19.2c1.15,1.04,2.59,1.56,4.04,1.56,1.65,0,3.29-.67,4.48-1.99,1.04-1.15,1.56-2.6,1.56-4.04,0-1.65-.67-3.29-1.99-4.48Zm-95.87-52.74c0-21.37,17.38-38.75,38.75-38.75s38.75,17.38,38.75,38.75-17.38,38.74-38.75,38.74-38.75-17.38-38.75-38.74Z"/>
  </g>
  <g id="Layer_7" data-name="Layer 7">
    <rect class="cls-3" x="124.19" y="132.4" width="88.62" height="88.62"/>
  </g>
</svg>